<svg width="128" height="128" viewBox="0 0 128 128" fill="none" xmlns="http://www.w3.org/2000/svg">
<g clip-path="url(#clip0_721_2)">
<path d="M128 0H0V128H128V0Z" fill="white"/>
<path d="M16 92.301V38.2718L26.3825 31.5825V86.1262L33.6503 89.7282V28.4951L43.5137 22.3204V95.3883L50.2623 98.9903V18.2039L63.7596 11L111 38.2718V92.301L84.5246 106.709V95.3883L100.617 86.1262V43.4175L63.7596 22.3204L59.6066 24.8932V117L16 92.301Z" fill="#EE451A"/>
<path d="M67.3934 117V52.165L77.776 57.3107V79.4369L82.9672 76.8641V52.165L67.3934 43.4175V32.6116L93.8689 47.534V83.0388L77.776 92.301V110.311L67.3934 117Z" fill="#EE451A"/>
</g>
<defs>
<clipPath id="clip0_721_2">
<rect width="128" height="128" fill="white"/>
</clipPath>
</defs>
</svg>
